{"title":"FRESH PRINCE_ S01E01-Pilot (The Fresh Prince Project)-Fatal0ty","uid":9455478,"size":278623830,"categoryP":"video","categoryS":"tv_shows","magnet":"?xt=urn:btih:7c26a3e2e11ff3c7e5b3b89684ec57490973ca91&amp;dn=FRESH+PRINCE_+S01E01-Pilot+%28The+Fresh+Prince+Project%29-Fatal0ty&amp;tr=udp%3A%2F%2Ftracker.openbittorrent.com%3A80&amp;tr=udp%3A%2F%2Fopen.demonii.com%3A1337&amp;tr=udp%3A%2F%2Ftracker.coppersurfer.tk%3A6969&amp;tr=udp%3A%2F%2Fexodus.desync.com%3A6969","seeders":1,"leechers":2,"uploader":"gate4","files":1,"time":1389261723,"description":"FRESH PRINCE_ S01E01-Pilot (The Fresh Prince Project)-Fatal0ty\n\nFormat : MPEG-4\nFormat profile : Base Media / Version 2\nCodec ID : mp42\nFile size : 266 MiB\nDuration : 22mn 6s\nOverall bit rate mode : Variable\nOverall bit rate : 1 680 Kbps\n\n\nVideo\nID : 1\nFormat : AVC\nFormat/Info : Advanced Video Codec\nFormat profile : &lt;a class=&quot;__cf_email__&quot; href=&quot;/cdn-cgi/l/email-protection&quot; data-cfemail=&quot;5e133f37301e126d706e&quot;&gt;[email&amp;#160;protected]&lt;/a&gt;&lt;script cf-hash='f9e31' type=&quot;text/javascript&quot;&gt;\n/* &lt;![CDATA[ */!function(){try{var t=&quot;currentScript&quot;in document?document.currentScript:function(){for(var t=document.getElementsByTagName(&quot;script&quot;),e=t.length;e--;)if(t[e].getAttribute(&quot;cf-hash&quot;))return t[e]}();if(t&amp;&amp;t.previousSibling){var e,r,n,i,c=t.previousSibling,a=c.getAttribute(&quot;data-cfemail&quot;);if(a){for(e=&quot;&quot;,r=parseInt(a.substr(0,2),16),n=2;a.length-n;n+=2)i=parseInt(a.substr(n,2),16)^r,e+=String.fromCharCode(i);e=document.createTextNode(e),c.parentNode.replaceChild(e,c)}}}catch(u){}}();/* ]]&gt; */&lt;/script&gt;\nFormat settings, CABAC : Yes\nFormat settings, ReFrames : 1 frame\nFormat settings, GOP : M=1, N=15\nCodec ID : avc1\nCodec ID/Info : Advanced Video Coding\nDuration : 22mn 6s\nBit rate mode : Variable\nBit rate : 1 477 Kbps\nMaximum bit rate : 2 203 Kbps\nWidth : 720 pixels\nHeight : 544 pixels\nDisplay aspect ratio : 4:3\nFrame rate mode : Constant\nFrame rate : 25.000 fps\nColor space : YUV\nChroma subsampling : 4:2:0\nBit depth : 8 bits\nScan type : Progressive\nBits/(Pixel*Frame) : 0.151\nStream size : 233 MiB (88%)\nEncoded date : UTC 2014-01-09 08:18:02\nTagged date : UTC 2014-01-09 08:23:01\nColor primaries : BT.601 NTSC\nTransfer characteristics : BT.709\nMatrix coefficients : BT.601\n\nAudio\nID : 2\nFormat : AC-3\nFormat/Info : Audio Coding 3\nMode extension : CM (complete main)\nFormat settings, Endianness : Big\nCodec ID : ac-3\nDuration : 22mn 6s\nBit rate mode : Constant\nBit rate : 192 Kbps\nChannel count : 2 channels\nChannel positions : Front: L R\nSampling rate : 48.0 KHz\nBit depth : 16 bits\nCompression mode : Lossy\nStream size : 30.4 MiB (11%) ","torrent":{"xt":"urn:btih:7c26a3e2e11ff3c7e5b3b89684ec57490973ca91","amp;dn":"FRESH+PRINCE_+S01E01-Pilot+%28The+Fresh+Prince+Project%29-Fatal0ty","amp;tr":["udp%3A%2F%2Ftracker.openbittorrent.com%3A80","udp%3A%2F%2Fopen.demonii.com%3A1337","udp%3A%2F%2Ftracker.coppersurfer.tk%3A6969","udp%3A%2F%2Fexodus.desync.com%3A6969"],"infoHash":"7c26a3e2e11ff3c7e5b3b89684ec57490973ca91","infoHashBuffer":{"type":"Buffer","data":[124,38,163,226,225,31,243,199,229,179,184,150,132,236,87,73,9,115,202,145]},"announce":[],"urlList":[]}}